<svg xmlns="http://www.w3.org/2000/svg" id="reteg1" version="1" viewBox="0 0 842 769"><style>.st4{fill:#fff}</style><switch><g><path d="M469 511L343 637 90 384l253-253 126 127 45-45L343 42 0 384l343 343 170-170-44-46z"/><path fill="#fff200" d="M217 257L91 384l126 127-45 46L0 384l172-172 45 45z"/><path fill="#ec008c" d="M470 259L343 133 217 257l-45-45L343 42l172 172-45 45z"/><path fill="#00aeef" d="M470 510L343 636 217 511l-45 45 171 171 172-172-45-45z"/><path stroke="#000" stroke-linejoin="round" stroke-miterlimit="10" d="M516 247h270v270H516z" transform="rotate(-45 651 381)"/><path d="M304 448l-36-55-15 19v36h-23V318h23v62l44-62h26l-40 57 48 73h-27zM381 448h-39V319l36-2c14 0 24 3 32 9 7 6 11 14 11 25 0 10-5 18-16 24 16 5 24 17 24 34 0 12-4 22-13 28-9 7-21 11-35 11zm-16-111v31h11c15 0 22-5 22-17 0-10-7-15-20-15l-13 1zm0 49v43h11c10 0 18-2 22-5 5-4 7-9 7-17s-2-13-6-16c-4-4-12-5-23-5h-11z"/><path d="M581 400v48h-23V319l27-1c20 0 35 3 45 9 9 6 14 16 14 29 0 30-17 45-52 45l-11-1zm0-62v42h9c11 0 19-1 23-5 5-3 8-9 8-17 0-13-11-20-33-20h-7zM737 448l-34-54h-15v54h-24V318h15l21-1c33 0 49 13 49 38 0 8-2 15-6 21-5 6-11 11-17 13l38 59h-27zm-49-110v36l10 1c10 0 17-2 21-4 5-3 7-8 7-16 0-7-3-11-7-13-5-3-13-4-23-4h-8z" class="st4"/></g></switch></svg>